<svg data-v-423bf9ae="" xmlns="http://www.w3.org/2000/svg" viewBox="0 0 443 112" class="iconLeft"><!----><!----><!----><g data-v-423bf9ae="" id="917606a8-20e0-42a0-9b78-70dd8b7a7b00" fill="#000000" transform="matrix(5.714285714285714,0,0,5.714285714285714,125.51110070092338,4.412699120385305)"><path d="M0.98 14.08L3.21 14.08L3.21 7.71L5.56 13.10L7.18 13.10L9.53 7.71L9.55 14.08L11.75 14.08L11.75 4.27L9.03 4.27L6.37 10.11L3.71 4.27L0.98 4.27ZM13.08 10.33C13.08 12.63 14.62 14.17 17.08 14.17C18.47 14.17 19.60 13.68 20.37 12.84L19.10 11.59C18.59 12.10 17.95 12.36 17.29 12.36C16.39 12.36 15.75 11.86 15.51 10.96L20.82 10.96C20.99 8.20 19.67 6.45 17.01 6.45C14.67 6.45 13.08 7.99 13.08 10.33ZM15.47 9.66C15.62 8.75 16.20 8.13 17.04 8.13C17.91 8.13 18.49 8.74 18.49 9.66ZM21.55 11.83C21.55 13.22 22.53 14.20 24.14 14.20C25.16 14.20 25.96 13.86 26.45 13.22L26.45 14.08L28.81 14.08L28.81 9.16C28.80 7.45 27.59 6.43 25.52 6.43C24.26 6.43 23.20 6.73 22.02 7.28L22.71 8.88C23.51 8.47 24.33 8.25 24.96 8.25C25.94 8.25 26.43 8.69 26.43 9.44L26.43 9.55L24.44 9.55C22.57 9.56 21.55 10.40 21.55 11.83ZM23.81 11.66C23.81 11.10 24.18 10.85 24.91 10.85L26.43 10.85L26.43 11.52C26.28 12.14 25.63 12.56 24.88 12.56C24.21 12.56 23.81 12.21 23.81 11.66ZM30.60 14.08L33.03 14.08L33.03 3.70L30.60 3.70ZM35.04 14.08L37.53 14.08L37.53 11.33L39.31 11.33C41.82 11.33 43.26 10.00 43.26 7.70C43.26 5.52 41.82 4.28 39.31 4.28L35.04 4.28ZM37.53 9.37L37.53 6.24L39.19 6.24C40.28 6.24 40.91 6.76 40.91 7.78C40.91 8.82 40.28 9.37 39.19 9.37ZM43.96 11.83C43.96 13.22 44.94 14.20 46.55 14.20C47.57 14.20 48.37 13.86 48.86 13.22L48.86 14.08L51.23 14.08L51.23 9.16C51.21 7.45 50.01 6.43 47.94 6.43C46.68 6.43 45.61 6.73 44.44 7.28L45.12 8.88C45.92 8.47 46.75 8.25 47.38 8.25C48.36 8.25 48.85 8.69 48.85 9.44L48.85 9.55L46.86 9.55C44.98 9.56 43.96 10.40 43.96 11.83ZM46.23 11.66C46.23 11.10 46.59 10.85 47.32 10.85L48.85 10.85L48.85 11.52C48.69 12.14 48.05 12.56 47.29 12.56C46.62 12.56 46.23 12.21 46.23 11.66ZM53.02 14.08L55.44 14.08L55.44 3.70L53.02 3.70Z"></path></g><defs data-v-423bf9ae=""><linearGradient data-v-423bf9ae="" gradientTransform="rotate(25)" id="39fd73f4-8f4b-4909-862c-0e8dcc0f144c" x1="0%" y1="0%" x2="100%" y2="0%"><stop data-v-423bf9ae="" offset="0%" style="stop-color: rgb(78, 26, 112); stop-opacity: 1;"></stop><stop data-v-423bf9ae="" offset="100%" style="stop-color: rgb(43, 76, 242); stop-opacity: 1;"></stop></linearGradient></defs><g data-v-423bf9ae="" id="fdbd9d1d-68a7-4213-be38-cc8b8b11c062" transform="matrix(1.1111111111111112,0,0,1.1111111111111112,-1.8333333333333357,-1.8333333333333357)" stroke="none" fill="url(#39fd73f4-8f4b-4909-862c-0e8dcc0f144c)"><path d="M52.501 2.5C24.887 2.5 2.5 24.886 2.5 52.499c0 27.614 22.387 50.001 50.001 50.001S102.5 80.113 102.5 52.499C102.5 24.886 80.115 2.5 52.501 2.5zm0 93.186c-23.853 0-43.187-19.334-43.187-43.187 0-23.851 19.334-43.187 43.187-43.187 23.852 0 43.188 19.336 43.188 43.187-.001 23.853-19.336 43.187-43.188 43.187z"></path><path d="M26.259 75.269c-1.709.884-2.298 0-2.298 0s-2.27-3.329-3.33-4.979c-.905-1.406.142-2.267.471-2.49l1.759 2.778 1.618-1.024-1.686-2.665 2.245-1.194 1.748 2.763 1.619-1.025-1.673-2.642 2.274-1.211 1.662 2.758 1.641-.988-1.61-2.671.563-.301-1.334-2.047s-8.267 4.332-10.919 5.923-1.119 4.538-1.119 4.538 2.908 3.928 4.153 6.248c1.504 2.799 4.893 1.09 4.893 1.09l8.546-6.299-1.326-2.041c0-.002-6.188 4.595-7.897 5.479zM85.99 65.722c-2.652-1.591-10.919-5.923-10.919-5.923l-1.334 2.047.563.301-1.61 2.67 1.641.989 1.662-2.758 2.274 1.211-1.672 2.641 1.619 1.024 1.748-2.763 2.245 1.196-1.686 2.663 1.618 1.025 1.759-2.778c.329.224 1.376 1.084.471 2.491-1.061 1.648-3.33 4.979-3.33 4.979s-.589.884-2.298 0c-1.709-.886-7.897-5.481-7.897-5.481L69.518 71.3l8.546 6.297s3.389 1.709 4.893-1.09c1.245-2.32 4.153-6.246 4.153-6.246s1.533-2.948-1.12-4.539zM75.72 54.366s4.597-8.133 0-15.911c-4.18-7.073-14.642-8.225-20.051-1.731l-.004.001a.798.798 0 0 0-.035.049c-.243.294-.474.608-.696.935-.223.045-.495-.255-.866-1.334-.865-2.515 2.2-6.287 3.693-8.094 1.493-1.808.471-2.279.471-2.279-3.692.157-5.794 4.479-5.794 4.479-.45-.942-2.22-2.671-2.22-2.671-2.987-12.258-15.481-6.68-15.481-6.68.629 11.079 14.087 10.27 12.651 9.194-2.828-2.121-3.692-4.715-3.692-4.715 8.564 4.637 8.486 9.507 8.25 11.394-.144 1.146-1.098 1.043-1.825.788-5.108-7.658-16.445-6.771-20.84.665-4.597 7.778 0 15.911 0 15.911s1.427 2.443 4.954 7.477c3.769 5.371.645 10.026 4.497 13.82 5.813 5.722 13.769.155 13.769.155s7.955 5.566 13.768-.155c3.854-3.794.729-8.449 4.495-13.82 3.529-5.034 4.956-7.478 4.956-7.478zM64.897 35.878c.788-.953 2.674-.695 4.212.576 1.539 1.271 2.148 3.075 1.36 4.029-.788.952-2.675.695-4.213-.577-1.538-1.272-2.148-3.076-1.359-4.028zm6.054 9.637c-.41.485-1.381.34-2.167-.322-.787-.664-1.093-1.595-.683-2.079.409-.484 1.378-.339 2.165.324.789.663 1.094 1.593.685 2.077zM52.5 63.128c-6.4 0-6.386-.191-15.041-.823-.855-1.783-2.44-3.51-3.421-5.09-1.768-2.85-2.2-5.087-2.2-5.087s1.294.22 3.343.516v2.573h1.916v-2.308c1.075.143 2.27.292 3.538.436v2.934h1.915V53.55c1.151.117 2.34.223 3.539.313v3.354h1.915V53.99c1.197.068 2.385.114 3.539.133v3.628h1.914v-3.627a90.461 90.461 0 0 0 3.539-.116v3.209h1.915v-3.325c1.213-.085 2.4-.187 3.539-.298v2.685h1.915v-2.888a157.16 157.16 0 0 0 3.538-.44v2.267h1.916v-2.541c2.07-.312 3.343-.548 3.343-.548s-.433 2.237-2.2 5.087c-.98 1.58-2.629 3.307-3.486 5.09 0-.001-8.957.822-14.976.822z"></path></g><!----></svg>